<svg xmlns="http://www.w3.org/2000/svg" width="48" height="48" viewBox="0 0 48 48"><title>i remove</title><g fill="#090909" class="nc-icon-wrapper"><path d="M31.293,13.878l-7.293,7.293-7.293-7.293c-.391-.391-1.024-.391-1.414,0l-1.415,1.415c-.391,.391-.391,1.024,0,1.414l7.293,7.293-7.293,7.293c-.391,.391-.391,1.024,0,1.414l1.415,1.415c.391,.391,1.024,.391,1.414,0l7.293-7.293,7.293,7.293c.391,.391,1.024,.391,1.414,0l1.415-1.415c.391-.391,.391-1.024,0-1.414l-7.293-7.293,7.293-7.293c.391-.391,.391-1.024,0-1.414l-1.415-1.415c-.391-.391-1.024-.391-1.414,0Z" fill="#090909"></path></g></svg>