<svg xmlns="http://www.w3.org/2000/svg" width="48" height="48" viewBox="0 0 48 48"><title>menu 3</title><g fill="#090909" class="nc-icon-wrapper"><path data-color="color-2" fill="#090909" d="M45,22H3c-0.552,0-1,0.448-1,1v2c0,0.552,0.448,1,1,1h42c0.552,0,1-0.448,1-1v-2 C46,22.448,45.552,22,45,22z"></path> <path fill="#090909" d="M45,8H3C2.448,8,2,8.448,2,9v2c0,0.552,0.448,1,1,1h42c0.552,0,1-0.448,1-1V9C46,8.448,45.552,8,45,8z"></path> <path fill="#090909" d="M45,36H25c-0.552,0-1,0.448-1,1v2c0,0.552,0.448,1,1,1h20c0.552,0,1-0.448,1-1v-2C46,36.448,45.552,36,45,36 z"></path></g></svg>