<svg xmlns="http://www.w3.org/2000/svg" width="48" height="48" viewBox="0 0 48 48"><title>menu 6</title><g fill="#090909" class="nc-icon-wrapper"><path data-color="color-2" fill="#090909" d="M46,20H2c-0.6,0-1,0.4-1,1v6c0,0.6,0.4,1,1,1h44c0.6,0,1-0.4,1-1v-6C47,20.4,46.6,20,46,20z"></path> <path fill="#090909" d="M46,4H2C1.4,4,1,4.4,1,5v6c0,0.6,0.4,1,1,1h44c0.6,0,1-0.4,1-1V5C47,4.4,46.6,4,46,4z"></path> <path fill="#090909" d="M46,36H2c-0.6,0-1,0.4-1,1v6c0,0.6,0.4,1,1,1h44c0.6,0,1-0.4,1-1v-6C47,36.4,46.6,36,46,36z"></path></g></svg>